<?xml version="1.0" encoding="UTF-8"?>
<svg width="800" height="600" version="1.1" font-family="Signika, sans" font-size="22.0px" xmlns:svg="http://www.w3.org/2000/svg" xmlns="http://www.w3.org/2000/svg">
       <style>
            @font-face {
            font-family: 'Signika';
            font-style: normal;
            font-weight: 400;
            src: local('Signika'), local('Signika-Regular'), url(https://fonts.gstatic.com/s/signika/v6/q41y_9MUP_N8ipOH4ORRvw.woff2) format('woff2');
            unicode-range: U+0000-00FF, U+0131, U+0152-0153, U+02C6, U+02DA, U+02DC, U+2000-206F, U+2074, U+20AC, U+2212, U+2215, U+E0FF, U+EFFD, U+F000;
            }
            @font-face {
            font-family: 'Signika';
            font-style: normal;
            font-weight: 700;
            src: local('Signika-Bold'), url(https://fonts.gstatic.com/s/signika/v6/7M5kxD4eGxuhgFaIk95pBfk_vArhqVIZ0nv9q090hN8.woff2) format('woff2');
            unicode-range: U+0000-00FF, U+0131, U+0152-0153, U+02C6, U+02DA, U+02DC, U+2000-206F, U+2074, U+20AC, U+2212, U+2215, U+E0FF, U+EFFD, U+F000;
            }
       </style><g transform="translate(0,600) scale(1,-1)"><rect style="fill:#000000;fill-opacity:1;stroke:none" width="800" height="600" x="0" y="0.0"/><rect style="fill:#000000;fill-opacity:1;stroke:none" width="800" height="600" x="0" y="0.0"/><rect style="fill:#ffffff;fill-opacity:1;stroke:none" width="800" height="600" x="0" y="600.0"/></g><g><g transform="scale(1,-1) translate(66,0.0) scale(1,-1) translate(0, 600)">
                <!-- group is translated to the center of square with some flipping for easier translation -->
                <g stroke="#000000" stroke-width="3">
                    <rect fill="#000000" stroke="#000000" stroke-width="3" width="44" height="44" x="-22.0" y="-22.0"/>
                    <line x1="-22.0" y1="0" x2="-19.0" y2="0"/>
                    <line x1="22.0" y1="0" x2="19.0" y2="0"/>
                </g>
                <text x="0" y="0" fill="#000000" text-anchor="middle" dominant-baseline="central">0</text>
                <text x="-35.2" y="0" fill="#000000" text-anchor="end" dominant-baseline="central" font-weight="bold" font-size="35.2" transform="rotate(-90)">black</text>
            </g><g transform="scale(1,-1) translate(133,216.0) scale(1,-1) translate(0, 600)">
                <!-- group is translated to the center of square with some flipping for easier translation -->
                <g stroke="#000000" stroke-width="3">
                    <rect fill="#555555" stroke="#000000" stroke-width="3" width="44" height="44" x="-22.0" y="-22.0"/>
                    <line x1="-22.0" y1="0" x2="-19.0" y2="0"/>
                    <line x1="22.0" y1="0" x2="19.0" y2="0"/>
                </g>
                <text x="0" y="0" fill="#000000" text-anchor="middle" dominant-baseline="central">36</text>
                <text x="-35.2" y="0" fill="#555555" text-anchor="end" dominant-baseline="central" font-weight="bold" font-size="35.2" transform="rotate(-90)">br_black</text>
            </g><g transform="scale(1,-1) translate(200,420.0) scale(1,-1) translate(0, 600)">
                <!-- group is translated to the center of square with some flipping for easier translation -->
                <g stroke="#000000" stroke-width="3">
                    <rect fill="#aaaaaa" stroke="#000000" stroke-width="3" width="44" height="44" x="-22.0" y="-22.0"/>
                    <line x1="-22.0" y1="0" x2="-19.0" y2="0"/>
                    <line x1="22.0" y1="0" x2="19.0" y2="0"/>
                </g>
                <text x="0" y="0" fill="#000000" text-anchor="middle" dominant-baseline="central">70</text>
                <text x="-35.2" y="0" fill="#aaaaaa" text-anchor="end" dominant-baseline="central" font-weight="bold" font-size="35.2" transform="rotate(-90)">white</text>
            </g><g transform="scale(1,-1) translate(266,600.0) scale(1,-1) translate(0, 600)">
                <!-- group is translated to the center of square with some flipping for easier translation -->
                <g stroke="#000000" stroke-width="3">
                    <rect fill="#ffffff" stroke="#000000" stroke-width="3" width="44" height="44" x="-22.0" y="-22.0"/>
                    <line x1="-22.0" y1="0" x2="-19.0" y2="0"/>
                    <line x1="22.0" y1="0" x2="19.0" y2="0"/>
                </g>
                <text x="0" y="0" fill="#000000" text-anchor="middle" dominant-baseline="central">100</text>
                <text x="-35.2" y="0" fill="#ffffff" text-anchor="end" dominant-baseline="central" font-weight="bold" font-size="35.2" transform="rotate(-90)">fg</text>
            </g><g transform="scale(1,-1) translate(333,600.0) scale(1,-1) translate(0, 600)">
                <!-- group is translated to the center of square with some flipping for easier translation -->
                <g stroke="#000000" stroke-width="3">
                    <rect fill="#ffffff" stroke="#000000" stroke-width="3" width="44" height="44" x="-22.0" y="-22.0"/>
                    <line x1="-22.0" y1="0" x2="-19.0" y2="0"/>
                    <line x1="22.0" y1="0" x2="19.0" y2="0"/>
                </g>
                <text x="0" y="0" fill="#000000" text-anchor="middle" dominant-baseline="central">100</text>
                <text x="-35.2" y="0" fill="#ffffff" text-anchor="end" dominant-baseline="central" font-weight="bold" font-size="35.2" transform="rotate(-90)">br_white</text>
            </g><g transform="scale(1,-1) translate(400,216.0) scale(1,-1) translate(0, 600)">
                <!-- group is translated to the center of square with some flipping for easier translation -->
                <g stroke="#000000" stroke-width="3">
                    <rect fill="#aa0000" stroke="#000000" stroke-width="3" width="44" height="44" x="-22.0" y="-22.0"/>
                    <line x1="-22.0" y1="0" x2="-19.0" y2="0"/>
                    <line x1="22.0" y1="0" x2="19.0" y2="0"/>
                </g>
                <text x="0" y="0" fill="#000000" text-anchor="middle" dominant-baseline="central">36</text>
                <text x="-35.2" y="0" fill="#aa0000" text-anchor="end" dominant-baseline="central" font-weight="bold" font-size="35.2" transform="rotate(-90)">red</text>
            </g><g transform="scale(1,-1) translate(466,366.0) scale(1,-1) translate(0, 600)">
                <!-- group is translated to the center of square with some flipping for easier translation -->
                <g stroke="#000000" stroke-width="3">
                    <rect fill="#00aa00" stroke="#000000" stroke-width="3" width="44" height="44" x="-22.0" y="-22.0"/>
                    <line x1="-22.0" y1="0" x2="-19.0" y2="0"/>
                    <line x1="22.0" y1="0" x2="19.0" y2="0"/>
                </g>
                <text x="0" y="0" fill="#000000" text-anchor="middle" dominant-baseline="central">61</text>
                <text x="-35.2" y="0" fill="#00aa00" text-anchor="end" dominant-baseline="central" font-weight="bold" font-size="35.2" transform="rotate(-90)">green</text>
            </g><g transform="scale(1,-1) translate(533,276.0) scale(1,-1) translate(0, 600)">
                <!-- group is translated to the center of square with some flipping for easier translation -->
                <g stroke="#000000" stroke-width="3">
                    <rect fill="#aa5500" stroke="#000000" stroke-width="3" width="44" height="44" x="-22.0" y="-22.0"/>
                    <line x1="-22.0" y1="0" x2="-19.0" y2="0"/>
                    <line x1="22.0" y1="0" x2="19.0" y2="0"/>
                </g>
                <text x="0" y="0" fill="#000000" text-anchor="middle" dominant-baseline="central">46</text>
                <text x="-35.2" y="0" fill="#aa5500" text-anchor="end" dominant-baseline="central" font-weight="bold" font-size="35.2" transform="rotate(-90)">yellow</text>
            </g><g transform="scale(1,-1) translate(600,108.0) scale(1,-1) translate(0, 600)">
                <!-- group is translated to the center of square with some flipping for easier translation -->
                <g stroke="#000000" stroke-width="3">
                    <rect fill="#0000aa" stroke="#000000" stroke-width="3" width="44" height="44" x="-22.0" y="-22.0"/>
                    <line x1="-22.0" y1="0" x2="-19.0" y2="0"/>
                    <line x1="22.0" y1="0" x2="19.0" y2="0"/>
                </g>
                <text x="0" y="0" fill="#000000" text-anchor="middle" dominant-baseline="central">18</text>
                <text x="-35.2" y="0" fill="#0000aa" text-anchor="end" dominant-baseline="central" font-weight="bold" font-size="35.2" transform="rotate(-90)">blue</text>
            </g><g transform="scale(1,-1) translate(666,240.0) scale(1,-1) translate(0, 600)">
                <!-- group is translated to the center of square with some flipping for easier translation -->
                <g stroke="#000000" stroke-width="3">
                    <rect fill="#aa00aa" stroke="#000000" stroke-width="3" width="44" height="44" x="-22.0" y="-22.0"/>
                    <line x1="-22.0" y1="0" x2="-19.0" y2="0"/>
                    <line x1="22.0" y1="0" x2="19.0" y2="0"/>
                </g>
                <text x="0" y="0" fill="#000000" text-anchor="middle" dominant-baseline="central">40</text>
                <text x="-35.2" y="0" fill="#aa00aa" text-anchor="end" dominant-baseline="central" font-weight="bold" font-size="35.2" transform="rotate(-90)">magenta</text>
            </g><g transform="scale(1,-1) translate(733,378.0) scale(1,-1) translate(0, 600)">
                <!-- group is translated to the center of square with some flipping for easier translation -->
                <g stroke="#000000" stroke-width="3">
                    <rect fill="#00aaaa" stroke="#000000" stroke-width="3" width="44" height="44" x="-22.0" y="-22.0"/>
                    <line x1="-22.0" y1="0" x2="-19.0" y2="0"/>
                    <line x1="22.0" y1="0" x2="19.0" y2="0"/>
                </g>
                <text x="0" y="0" fill="#000000" text-anchor="middle" dominant-baseline="central">63</text>
                <text x="-35.2" y="0" fill="#00aaaa" text-anchor="end" dominant-baseline="central" font-weight="bold" font-size="35.2" transform="rotate(-90)">cyan</text>
            </g></g></svg>
