<?xml version="1.0" encoding="UTF-8"?>
<svg width="800" height="600" version="1.1" font-family="Signika, sans" font-size="22.0px" xmlns:svg="http://www.w3.org/2000/svg" xmlns="http://www.w3.org/2000/svg">
       <style>
            @font-face {
            font-family: 'Signika';
            font-style: normal;
            font-weight: 400;
            src: local('Signika'), local('Signika-Regular'), url(https://fonts.gstatic.com/s/signika/v6/q41y_9MUP_N8ipOH4ORRvw.woff2) format('woff2');
            unicode-range: U+0000-00FF, U+0131, U+0152-0153, U+02C6, U+02DA, U+02DC, U+2000-206F, U+2074, U+20AC, U+2212, U+2215, U+E0FF, U+EFFD, U+F000;
            }
            @font-face {
            font-family: 'Signika';
            font-style: normal;
            font-weight: 700;
            src: local('Signika-Bold'), url(https://fonts.gstatic.com/s/signika/v6/7M5kxD4eGxuhgFaIk95pBfk_vArhqVIZ0nv9q090hN8.woff2) format('woff2');
            unicode-range: U+0000-00FF, U+0131, U+0152-0153, U+02C6, U+02DA, U+02DC, U+2000-206F, U+2074, U+20AC, U+2212, U+2215, U+E0FF, U+EFFD, U+F000;
            }
       </style><g transform="translate(0,600) scale(1,-1)"><rect style="fill:#000000;fill-opacity:1;stroke:none" width="800" height="600" x="0" y="0.0"/><rect style="fill:#3f3f3f;fill-opacity:1;stroke:none" width="800" height="600" x="0" y="162.0"/><rect style="fill:#ffffff;fill-opacity:1;stroke:none" width="800" height="600" x="0" y="600.0"/></g><g><g transform="scale(1,-1) translate(66,126.0) scale(1,-1) translate(0, 600)">
                <!-- group is translated to the center of square with some flipping for easier translation -->
                <g stroke="#3f3f3f" stroke-width="3">
                    <rect fill="#2e3436" stroke="#3f3f3f" stroke-width="3" width="44" height="44" x="-22.0" y="-22.0"/>
                    <line x1="-22.0" y1="0" x2="-19.0" y2="0"/>
                    <line x1="22.0" y1="0" x2="19.0" y2="0"/>
                </g>
                <text x="0" y="0" fill="#3f3f3f" text-anchor="middle" dominant-baseline="central">21</text>
                <text x="-35.2" y="0" fill="#2e3436" text-anchor="end" dominant-baseline="central" font-weight="bold" font-size="35.2" transform="rotate(-90)">black</text>
            </g><g transform="scale(1,-1) translate(133,222.0) scale(1,-1) translate(0, 600)">
                <!-- group is translated to the center of square with some flipping for easier translation -->
                <g stroke="#3f3f3f" stroke-width="3">
                    <rect fill="#555753" stroke="#3f3f3f" stroke-width="3" width="44" height="44" x="-22.0" y="-22.0"/>
                    <line x1="-22.0" y1="0" x2="-19.0" y2="0"/>
                    <line x1="22.0" y1="0" x2="19.0" y2="0"/>
                </g>
                <text x="0" y="0" fill="#3f3f3f" text-anchor="middle" dominant-baseline="central">37</text>
                <text x="-35.2" y="0" fill="#555753" text-anchor="end" dominant-baseline="central" font-weight="bold" font-size="35.2" transform="rotate(-90)">br_black</text>
            </g><g transform="scale(1,-1) translate(200,510.0) scale(1,-1) translate(0, 600)">
                <!-- group is translated to the center of square with some flipping for easier translation -->
                <g stroke="#3f3f3f" stroke-width="3">
                    <rect fill="#d3d7cf" stroke="#3f3f3f" stroke-width="3" width="44" height="44" x="-22.0" y="-22.0"/>
                    <line x1="-22.0" y1="0" x2="-19.0" y2="0"/>
                    <line x1="22.0" y1="0" x2="19.0" y2="0"/>
                </g>
                <text x="0" y="0" fill="#3f3f3f" text-anchor="middle" dominant-baseline="central">85</text>
                <text x="-35.2" y="0" fill="#d3d7cf" text-anchor="end" dominant-baseline="central" font-weight="bold" font-size="35.2" transform="rotate(-90)">white</text>
            </g><g transform="scale(1,-1) translate(266,600.0) scale(1,-1) translate(0, 600)">
                <!-- group is translated to the center of square with some flipping for easier translation -->
                <g stroke="#3f3f3f" stroke-width="3">
                    <rect fill="#ffffff" stroke="#3f3f3f" stroke-width="3" width="44" height="44" x="-22.0" y="-22.0"/>
                    <line x1="-22.0" y1="0" x2="-19.0" y2="0"/>
                    <line x1="22.0" y1="0" x2="19.0" y2="0"/>
                </g>
                <text x="0" y="0" fill="#3f3f3f" text-anchor="middle" dominant-baseline="central">100</text>
                <text x="-35.2" y="0" fill="#ffffff" text-anchor="end" dominant-baseline="central" font-weight="bold" font-size="35.2" transform="rotate(-90)">fg</text>
            </g><g transform="scale(1,-1) translate(333,564.0) scale(1,-1) translate(0, 600)">
                <!-- group is translated to the center of square with some flipping for easier translation -->
                <g stroke="#3f3f3f" stroke-width="3">
                    <rect fill="#eeeeec" stroke="#3f3f3f" stroke-width="3" width="44" height="44" x="-22.0" y="-22.0"/>
                    <line x1="-22.0" y1="0" x2="-19.0" y2="0"/>
                    <line x1="22.0" y1="0" x2="19.0" y2="0"/>
                </g>
                <text x="0" y="0" fill="#3f3f3f" text-anchor="middle" dominant-baseline="central">94</text>
                <text x="-35.2" y="0" fill="#eeeeec" text-anchor="end" dominant-baseline="central" font-weight="bold" font-size="35.2" transform="rotate(-90)">br_white</text>
            </g><g transform="scale(1,-1) translate(400,258.0) scale(1,-1) translate(0, 600)">
                <!-- group is translated to the center of square with some flipping for easier translation -->
                <g stroke="#3f3f3f" stroke-width="3">
                    <rect fill="#cc0000" stroke="#3f3f3f" stroke-width="3" width="44" height="44" x="-22.0" y="-22.0"/>
                    <line x1="-22.0" y1="0" x2="-19.0" y2="0"/>
                    <line x1="22.0" y1="0" x2="19.0" y2="0"/>
                </g>
                <text x="0" y="0" fill="#3f3f3f" text-anchor="middle" dominant-baseline="central">43</text>
                <text x="-35.2" y="0" fill="#cc0000" text-anchor="end" dominant-baseline="central" font-weight="bold" font-size="35.2" transform="rotate(-90)">red</text>
            </g><g transform="scale(1,-1) translate(466,342.0) scale(1,-1) translate(0, 600)">
                <!-- group is translated to the center of square with some flipping for easier translation -->
                <g stroke="#3f3f3f" stroke-width="3">
                    <rect fill="#4e9a06" stroke="#3f3f3f" stroke-width="3" width="44" height="44" x="-22.0" y="-22.0"/>
                    <line x1="-22.0" y1="0" x2="-19.0" y2="0"/>
                    <line x1="22.0" y1="0" x2="19.0" y2="0"/>
                </g>
                <text x="0" y="0" fill="#3f3f3f" text-anchor="middle" dominant-baseline="central">57</text>
                <text x="-35.2" y="0" fill="#4e9a06" text-anchor="end" dominant-baseline="central" font-weight="bold" font-size="35.2" transform="rotate(-90)">green</text>
            </g><g transform="scale(1,-1) translate(533,408.0) scale(1,-1) translate(0, 600)">
                <!-- group is translated to the center of square with some flipping for easier translation -->
                <g stroke="#3f3f3f" stroke-width="3">
                    <rect fill="#c4a000" stroke="#3f3f3f" stroke-width="3" width="44" height="44" x="-22.0" y="-22.0"/>
                    <line x1="-22.0" y1="0" x2="-19.0" y2="0"/>
                    <line x1="22.0" y1="0" x2="19.0" y2="0"/>
                </g>
                <text x="0" y="0" fill="#3f3f3f" text-anchor="middle" dominant-baseline="central">68</text>
                <text x="-35.2" y="0" fill="#c4a000" text-anchor="end" dominant-baseline="central" font-weight="bold" font-size="35.2" transform="rotate(-90)">yellow</text>
            </g><g transform="scale(1,-1) translate(600,252.0) scale(1,-1) translate(0, 600)">
                <!-- group is translated to the center of square with some flipping for easier translation -->
                <g stroke="#3f3f3f" stroke-width="3">
                    <rect fill="#3465a4" stroke="#3f3f3f" stroke-width="3" width="44" height="44" x="-22.0" y="-22.0"/>
                    <line x1="-22.0" y1="0" x2="-19.0" y2="0"/>
                    <line x1="22.0" y1="0" x2="19.0" y2="0"/>
                </g>
                <text x="0" y="0" fill="#3f3f3f" text-anchor="middle" dominant-baseline="central">42</text>
                <text x="-35.2" y="0" fill="#3465a4" text-anchor="end" dominant-baseline="central" font-weight="bold" font-size="35.2" transform="rotate(-90)">blue</text>
            </g><g transform="scale(1,-1) translate(666,234.0) scale(1,-1) translate(0, 600)">
                <!-- group is translated to the center of square with some flipping for easier translation -->
                <g stroke="#3f3f3f" stroke-width="3">
                    <rect fill="#75507b" stroke="#3f3f3f" stroke-width="3" width="44" height="44" x="-22.0" y="-22.0"/>
                    <line x1="-22.0" y1="0" x2="-19.0" y2="0"/>
                    <line x1="22.0" y1="0" x2="19.0" y2="0"/>
                </g>
                <text x="0" y="0" fill="#3f3f3f" text-anchor="middle" dominant-baseline="central">39</text>
                <text x="-35.2" y="0" fill="#75507b" text-anchor="end" dominant-baseline="central" font-weight="bold" font-size="35.2" transform="rotate(-90)">magenta</text>
            </g><g transform="scale(1,-1) translate(733,342.0) scale(1,-1) translate(0, 600)">
                <!-- group is translated to the center of square with some flipping for easier translation -->
                <g stroke="#3f3f3f" stroke-width="3">
                    <rect fill="#06989a" stroke="#3f3f3f" stroke-width="3" width="44" height="44" x="-22.0" y="-22.0"/>
                    <line x1="-22.0" y1="0" x2="-19.0" y2="0"/>
                    <line x1="22.0" y1="0" x2="19.0" y2="0"/>
                </g>
                <text x="0" y="0" fill="#3f3f3f" text-anchor="middle" dominant-baseline="central">57</text>
                <text x="-35.2" y="0" fill="#06989a" text-anchor="end" dominant-baseline="central" font-weight="bold" font-size="35.2" transform="rotate(-90)">cyan</text>
            </g></g></svg>
